{
    "asset": {
        "generator": "COLLADA2GLTF",
        "version": "2.0"
    },
    "scenes": [
        {
            "nodes": [
                0
            ]
        }
    ],
    "scene": 0,
    "nodes": [
        {
            "children": [
                1
            ],
            "name": "Y_UP"
        },
        {
            "children": [
                4,
                2
            ],
            "name": "chr050"
        },
        {
            "children": [
                3
            ],
            "matrix": [
                1.0,
                0.0,
                0.0,
                0.0,
                0.0,
                1.0,
                4.3711420261161047e-8,
                0.0,
                0.0,
                -4.3711420261161047e-8,
                1.0,
                0.0,
                0.0,
                0.0,
                0.0,
                1.0
            ],
            "name": "GRP_mesh"
        },
        {
            "mesh": 0,
            "matrix": [
                1.0,
                0.0,
                0.0,
                0.0,
                0.0,
                1.0,
                1.3234884278822106e-23,
                0.0,
                0.0,
                -1.3234884278822106e-23,
                1.0,
                0.0,
                0.0,
                0.0,
                0.0,
                1.0
            ],
            "skin": 0,
            "name": "chr050"
        },
        {
            "children": [
                5
            ],
            "matrix": [
                0.3937009871006012,
                0.0,
                0.0,
                0.0,
                0.0,
                0.3937009871006012,
                1.720922959691507e-8,
                0.0,
                0.0,
                -1.720922959691507e-8,
                0.3937009871006012,
                0.0,
                0.0,
                0.0,
                0.0,
                1.0
            ],
            "name": "GRP_joint"
        },
        {
            "children": [
                6
            ],
            "matrix": [
                1.0,
                0.0,
                0.0,
                0.0,
                0.0,
                1.0,
                6.617451211311463e-24,
                0.0,
                0.0,
                -6.617451211311463e-24,
                1.0,
                0.0,
                0.0,
                0.0,
                0.0,
                1.0
            ],
            "name": "J_root"
        },
        {
            "children": [
                23,
                12,
                11,
                7
            ],
            "matrix": [
                1.0,
                0.0,
                0.0,
                0.0,
                0.0,
                1.0,
                0.0,
                0.0,
                0.0,
                0.0,
                1.0,
                0.0,
                0.0,
                0.18867270648479465,
                0.0022483801003545524,
                1.0
            ],
            "name": "J_center"
        },
        {
            "children": [
                8
            ],
            "matrix": [
                1.0,
                0.0,
                0.0,
                0.0,
                0.0,
                1.0,
                0.0,
                0.0,
                0.0,
                0.0,
                1.0,
                0.0,
                0.05608878657221794,
                -0.03140328824520111,
                -0.01314251869916916,
                1.0
            ],
            "name": "J_leg_l"
        },
        {
            "children": [
                9
            ],
            "matrix": [
                1.0,
                0.0,
                0.0,
                0.0,
                0.0,
                1.0,
                1.3234884278822106e-23,
                0.0,
                0.0,
                -1.3234884278822106e-23,
                1.0,
                0.0,
                4.511954258482771e-17,
                -0.06172351911664009,
                0.015605810098350048,
                1.0
            ],
            "name": "J_knee_l"
        },
        {
            "children": [
                10
            ],
            "matrix": [
                1.0,
                0.0,
                0.0,
                0.0,
                0.0,
                1.0,
                0.0,
                0.0,
                0.0,
                0.0,
                1.0,
                0.0,
                2.2559720007215879e-17,
                -0.04662322252988815,
                -0.014866416342556477,
                1.0
            ],
            "name": "J_foot_l"
        },
        {
            "matrix": [
                1.0,
                0.0,
                0.0,
                0.0,
                0.0,
                1.0,
                6.617451211311463e-24,
                0.0,
                0.0,
                -6.617451211311463e-24,
                1.0,
                0.0,
                -3.3839657765801389e-17,
                -0.02497503161430359,
                0.04086047038435936,
                1.0
            ],
            "name": "J_toe_l"
        },
        {
            "matrix": [
                1.0,
                0.0,
                0.0,
                0.0,
                0.0,
                1.0,
                0.0,
                0.0,
                0.0,
                0.0,
                1.0,
                0.0,
                3.232454743373497e-18,
                -0.02455250360071659,
                -0.06339077651500702,
                1.0
            ],
            "name": "J_tail"
        },
        {
            "children": [
                13
            ],
            "matrix": [
                1.0,
                0.0,
                0.0,
                0.0,
                0.0,
                1.0,
                0.0,
                0.0,
                0.0,
                0.0,
                1.0,
                0.0,
                0.0,
                9.731654175233264e-17,
                1.762478073864952e-18,
                1.0
            ],
            "name": "J_spine01"
        },
        {
            "children": [
                20,
                17,
                14
            ],
            "matrix": [
                1.0,
                0.0,
                0.0,
                0.0,
                0.0,
                1.0,
                1.3234884278822106e-23,
                0.0,
                0.0,
                -1.3234884278822106e-23,
                1.0,
                0.0,
                0.0,
                0.04604816809296608,
                -0.00019306819012854248,
                1.0
            ],
            "name": "J_spine02"
        },
        {
            "children": [
                15
            ],
            "matrix": [
                1.0,
                0.0,
                0.0,
                0.0,
                0.0,
                1.0,
                0.0,
                0.0,
                0.0,
                0.0,
                1.0,
                0.0,
                9.69738987271948e-18,
                0.06170446798205376,
                -0.0012392608914524317,
                1.0
            ],
            "name": "J_neck"
        },
        {
            "children": [
                16
            ],
            "matrix": [
                1.0,
                0.0,
                0.0,
                0.0,
                0.0,
                1.0,
                6.617451211311463e-24,
                0.0,
                0.0,
                -6.617451211311463e-24,
                1.0,
                0.0,
                4.878730197610537e-10,
                0.03221126273274422,
                0.007052919361740351,
                1.0
            ],
            "name": "J_head"
        },
        {
            "matrix": [
                1.0,
                0.0,
                0.0,
                0.0,
                0.0,
                1.0,
                0.0,
                0.0,
                0.0,
                0.0,
                1.0,
                0.0,
                1.6808297517994196e-25,
                0.02812998928129673,
                -0.0032823148649185898,
                1.0
            ],
            "name": "J_joe"
        },
        {
            "children": [
                18
            ],
            "matrix": [
                1.0,
                0.0,
                0.0,
                0.0,
                0.0,
                1.0,
                0.0,
                0.0,
                0.0,
                0.0,
                1.0,
                0.0,
                -0.06548069417476654,
                0.03749903291463852,
                -0.002125365426763892,
                1.0
            ],
            "name": "J_arm_r"
        },
        {
            "children": [
                19
            ],
            "matrix": [
                1.0,
                0.0,
                0.0,
                0.0,
                0.0,
                1.0,
                6.617451211311463e-24,
                0.0,
                0.0,
                -6.617451211311463e-24,
                1.0,
                0.0,
                -0.06256908178329468,
                -0.0001719587598927319,
                -0.003258311888203025,
                1.0
            ],
            "name": "J_elbow_r"
        },
        {
            "matrix": [
                1.0,
                0.0,
                0.0,
                0.0,
                0.0,
                1.0,
                0.0,
                0.0,
                0.0,
                0.0,
                1.0,
                0.0,
                -0.06696557253599167,
                0.00009226854308508337,
                0.002939719706773758,
                1.0
            ],
            "name": "J_hand_r"
        },
        {
            "children": [
                21
            ],
            "matrix": [
                1.0,
                0.0,
                0.0,
                0.0,
                0.0,
                1.0,
                0.0,
                0.0,
                0.0,
                0.0,
                1.0,
                0.0,
                0.06548475474119187,
                0.03749903291463852,
                -0.002125365426763892,
                1.0
            ],
            "name": "J_arm_l"
        },
        {
            "children": [
                22
            ],
            "matrix": [
                1.0,
                0.0,
                0.0,
                0.0,
                0.0,
                1.0,
                6.617451211311463e-24,
                0.0,
                0.0,
                -6.617451211311463e-24,
                1.0,
                0.0,
                0.06247358396649361,
                -0.00017465217388235033,
                -0.0032582865096628668,
                1.0
            ],
            "name": "J_elbow_l"
        },
        {
            "matrix": [
                1.0,
                0.0,
                0.0,
                0.0,
                0.0,
                1.0,
                0.0,
                0.0,
                0.0,
                0.0,
                1.0,
                0.0,
                0.06696455925703049,
                0.00009226854308508337,
                0.002939719706773758,
                1.0
            ],
            "name": "J_hand_l"
        },
        {
            "children": [
                24
            ],
            "matrix": [
                1.0,
                0.0,
                0.0,
                0.0,
                0.0,
                1.0,
                0.0,
                0.0,
                0.0,
                0.0,
                1.0,
                0.0,
                -0.05607634410262108,
                -0.03140328824520111,
                -0.01314251869916916,
                1.0
            ],
            "name": "J_leg_r"
        },
        {
            "children": [
                25
            ],
            "matrix": [
                1.0,
                0.0,
                0.0,
                0.0,
                0.0,
                1.0,
                1.3234884278822106e-23,
                0.0,
                0.0,
                -1.3234884278822106e-23,
                1.0,
                0.0,
                -3.3839657765801389e-17,
                -0.06172351911664009,
                0.015605810098350048,
                1.0
            ],
            "name": "J_knee_r"
        },
        {
            "children": [
                26
            ],
            "matrix": [
                1.0,
                0.0,
                0.0,
                0.0,
                0.0,
                1.0,
                0.0,
                0.0,
                0.0,
                0.0,
                1.0,
                0.0,
                -1.1279860003607939e-17,
                -0.04662322252988815,
                -0.014866416342556477,
                1.0
            ],
            "name": "J_foot_r"
        },
        {
            "matrix": [
                1.0,
                0.0,
                0.0,
                0.0,
                0.0,
                1.0,
                6.617451211311463e-24,
                0.0,
                0.0,
                -6.617451211311463e-24,
                1.0,
                0.0,
                1.1279860003607939e-17,
                -0.02497503161430359,
                0.04086047038435936,
                1.0
            ],
            "name": "J_toe_r"
        }
    ],
    "meshes": [
        {
            "primitives": [
                {
                    "attributes": {
                        "JOINTS_0": 1,
                        "NORMAL": 2,
                        "POSITION": 3,
                        "TEXCOORD_0": 4,
                        "WEIGHTS_0": 5
                    },
                    "indices": 0,
                    "mode": 4,
                    "material": 0
                }
            ],
            "name": "ID37"
        }
    ],
    "skins": [
        {
            "inverseBindMatrices": 6,
            "joints": [
                9,
                10,
                6,
                11,
                14,
                15,
                13,
                8,
                7,
                22,
                21,
                20,
                25,
                26,
                24,
                23,
                19,
                18,
                17,
                16
            ],
            "name": "ID36"
        }
    ],
    "accessors": [
        {
            "bufferView": 0,
            "byteOffset": 0,
            "componentType": 5123,
            "count": 15126,
            "max": [
                3309
            ],
            "min": [
                0
            ],
            "type": "SCALAR"
        },
        {
            "bufferView": 1,
            "byteOffset": 0,
            "componentType": 5123,
            "count": 3310,
            "max": [
                19,
                19,
                14,
                0
            ],
            "min": [
                0,
                0,
                0,
                0
            ],
            "type": "VEC4"
        },
        {
            "bufferView": 2,
            "byteOffset": 0,
            "componentType": 5126,
            "count": 3310,
            "max": [
                0.9995030164718628,
                0.999779999256134,
                0.9997599720954896
            ],
            "min": [
                -0.9995030164718628,
                -0.9999560117721558,
                -0.9977070093154908
            ],
            "type": "VEC3"
        },
        {
            "bufferView": 2,
            "byteOffset": 39720,
            "componentType": 5126,
            "count": 3310,
            "max": [
                0.13443584740161897,
                0.19925282895565034,
                0.076877161860466
            ],
            "min": [
                -0.13443584740161897,
                -0.0011632794048637152,
                -0.05152339115738869
            ],
            "type": "VEC3"
        },
        {
            "bufferView": 1,
            "byteOffset": 26480,
            "componentType": 5126,
            "count": 3310,
            "max": [
                0.9961529970169069,
                -0.0012500286102294922
            ],
            "min": [
                0.004595260135829449,
                -0.9967399835586548
            ],
            "type": "VEC2"
        },
        {
            "bufferView": 3,
            "byteOffset": 0,
            "componentType": 5126,
            "count": 3310,
            "max": [
                1.0,
                0.9769130945205689,
                0.00941482000052929,
                0.0
            ],
            "min": [
                0.023086901754140859,
                0.0,
                0.0,
                0.0
            ],
            "type": "VEC4"
        },
        {
            "bufferView": 4,
            "byteOffset": 0,
            "componentType": 5126,
            "count": 20,
            "max": [
                2.539999961853028,
                0.0,
                0.0,
                0.0,
                0.0,
                2.539999961853028,
                -1.1102699914999906e-7,
                0.0,
                0.0,
                1.1102699914999906e-7,
                2.539999961853028,
                0.0,
                7.677759647369385,
                -0.9428210258483888,
                2.407179832458496,
                1.0
            ],
            "min": [
                2.539999961853028,
                0.0,
                0.0,
                0.0,
                0.0,
                2.539999961853028,
                -1.1102699914999906e-7,
                0.0,
                0.0,
                1.1102699914999906e-7,
                2.539999961853028,
                0.0,
                -7.674129962921143,
                -14.045899391174317,
                -1.2088899612426758,
                1.0
            ],
            "type": "MAT4"
        }
    ],
    "materials": [
        {
            "pbrMetallicRoughness": {
                "baseColorTexture": {
                    "index": 0
                },
                "metallicFactor": 0.0
            },
            "name": "ID2"
        }
    ],
    "textures": [
        {
            "sampler": 0,
            "source": 0
        }
    ],
    "images": [
        {
            "uri": "chr050a01.png"
        }
    ],
    "samplers": [
        {
            "magFilter": 9729,
            "minFilter": 9986,
            "wrapS": 10497,
            "wrapT": 10497
        }
    ],
    "bufferViews": [
        {
            "buffer": 0,
            "byteOffset": 186640,
            "byteLength": 30252,
            "target": 34963
        },
        {
            "buffer": 0,
            "byteOffset": 133680,
            "byteLength": 52960,
            "byteStride": 8,
            "target": 34962
        },
        {
            "buffer": 0,
            "byteOffset": 54240,
            "byteLength": 79440,
            "byteStride": 12,
            "target": 34962
        },
        {
            "buffer": 0,
            "byteOffset": 1280,
            "byteLength": 52960,
            "byteStride": 16,
            "target": 34962
        },
        {
            "buffer": 0,
            "byteOffset": 0,
            "byteLength": 1280
        }
    ],
    "buffers": [
        {
            "byteLength": 216892,
            "uri": "data:application/octet-stream;base64,"
        }
    ]
}
